<?xml version="1.0" encoding="UTF-8"?>
<svg width="547px" height="109px" viewBox="0 0 547 109" version="1.1" xmlns="http://www.w3.org/2000/svg" xmlns:xlink="http://www.w3.org/1999/xlink">
    <title>Vit</title>
    <g id="Page-1" stroke="none" stroke-width="1" fill="none" fill-rule="evenodd">
        <g id="Logor-Erik-och-Lilly-v.4" transform="translate(-79.000000, -1093.000000)">
            <g id="Vit" transform="translate(79.000000, 1093.000000)">
                <text id="Erik-&amp;-Lily-Philipso-Copy-11" font-family="SortsMillGoudy-Regular, Sorts Mill Goudy" font-size="32" font-weight="normal" fill="#FFFFFF">
                    <tspan x="129" y="64">Erik &amp; Lily Philipsons stiftelse</tspan>
                </text>
                <g id="Group-Copy-12">
                    <circle id="Oval" fill="#FFFFFF" cx="54.5" cy="54.5" r="54.5"></circle>
                    <g id="Group-2" transform="translate(33.078347, 33.613438)" fill="#1C1C1C" fill-rule="nonzero">
                        <path d="M9.76315702,14.2294545 C10.1859449,14.2294545 10.6813994,13.9387879 11.2495207,13.3574545 C11.8176419,12.7761212 12.1017025,12.2013939 12.1017025,11.6332727 C12.1017025,11.4086667 12.0224298,11.2963636 11.8638843,11.2963636 C11.7317631,11.2963636 11.5864298,11.4615152 11.4278843,11.7918182 C11.2561267,12.1089091 10.7804904,12.4127879 10.0009752,12.7034545 C9.11576309,13.0205455 7.68224793,13.1790909 5.70042975,13.1790909 C5.46261157,13.1790909 5.18185399,13.1295455 4.85815702,13.0304545 C4.53446006,12.9313636 4.37261157,12.4061818 4.37261157,11.4549091 L4.37261157,11.4549091 L4.37261157,10.6621818 L4.41224793,7.80836364 C4.41224793,7.55733333 4.68309642,7.43181818 5.22479339,7.43181818 L5.22479339,7.43181818 L5.36352066,7.43181818 L5.99770248,7.45163636 L7.42461157,7.45163636 C8.11164187,7.45163636 8.5938843,7.54412121 8.87133884,7.72909091 C9.01667218,7.82157576 9.18182369,8.14527273 9.36679339,8.70018182 C9.45927824,9.01727273 9.60461157,9.17581818 9.80279339,9.17581818 C9.89527824,9.17581818 9.94152066,9.01066667 9.94152066,8.68036364 L9.94152066,8.68036364 L9.88206612,7.47145455 L10.0406116,5.39054545 C10.0406116,5.25842424 10.0273994,5.17254545 10.0009752,5.13290909 C9.97455096,5.09327273 9.89527824,5.07345455 9.76315702,5.07345455 C9.63103581,5.07345455 9.54515702,5.18575758 9.50552066,5.41036364 C9.41303581,5.96527273 9.02327824,6.30878788 8.33624793,6.44090909 C8.07200551,6.49375758 7.54352066,6.52018182 6.75079339,6.52018182 L4.80861157,6.52018182 C4.55758127,6.5069697 4.43206612,6.17006061 4.43206612,5.50945455 C4.43206612,2.76133333 4.53115702,1.30139394 4.72933884,1.12963636 C4.83503581,1.03715152 5.23139945,0.990909091 5.91842975,0.990909091 L5.91842975,0.990909091 L6.43370248,0.990909091 C7.0678843,0.990909091 7.97952066,1.03715152 9.16861157,1.12963636 C9.4989146,1.14284848 9.77636915,1.29478788 10.0009752,1.58545455 C10.2255813,1.87612121 10.3378843,2.18 10.3378843,2.49709091 C10.3378843,2.81418182 10.4402782,2.97272727 10.6450661,2.97272727 C10.849854,2.97272727 10.9522479,2.76133333 10.9522479,2.33854545 C10.9522479,2.08751515 10.9918843,1.74069697 11.071157,1.29809091 C11.1504298,0.855484848 11.1900661,0.594545455 11.1900661,0.515272727 C11.1900661,0.211393939 11.064551,0.0594545455 10.8135207,0.0594545455 L10.8135207,0.0594545455 L6.8498843,0.138727273 L2.01424793,0.0396363636 L1.47915702,0 C1.10921763,0 0.924247934,0.0924848485 0.924247934,0.277454545 C0.924247934,0.515272727 1.0299449,0.634181818 1.24133884,0.634181818 C1.66412672,0.647393939 2.03406612,0.75969697 2.35115702,0.971090909 C2.66824793,1.18248485 2.83339945,1.47975758 2.84661157,1.86290909 C2.87303581,2.70848485 2.88624793,3.30963636 2.88624793,3.66636364 L2.88624793,3.66636364 L2.82679339,7.09490909 L2.82679339,9.55236364 C2.82679339,11.0321212 2.77724793,12.0032121 2.67815702,12.4656364 C2.57906612,12.9280606 2.37758127,13.2319394 2.07370248,13.3772727 C1.76982369,13.5226061 1.54521763,13.6018788 1.3998843,13.6150909 C1.26776309,13.6415152 1.20170248,13.6943636 1.20170248,13.7736364 L1.20170248,13.7736364 L1.20170248,14.0114545 C1.20170248,14.1435758 1.34042975,14.2096364 1.6178843,14.2096364 L1.6178843,14.2096364 L4.31315702,14.0312727 C4.60382369,14.0312727 5.34700551,14.064303 6.54270248,14.1303636 C7.73839945,14.1964242 8.8118843,14.2294545 9.76315702,14.2294545 Z M19.5929752,14.5663636 C21.0066722,14.5663636 22.1363085,14.3285455 22.9818843,13.8529091 C23.3386116,13.6415152 23.6424904,13.4334242 23.8935207,13.2286364 C24.144551,13.0238485 24.3460358,12.8520909 24.4979752,12.7133636 C24.6499146,12.5746364 24.7457025,12.5052727 24.7853388,12.5052727 C24.8249752,12.5052727 24.9207631,12.5746364 25.0727025,12.7133636 C25.2246419,12.8520909 25.4261267,13.0205455 25.677157,13.2187273 C25.9281873,13.4169091 26.218854,13.6117879 26.549157,13.8033636 C26.8794601,13.9949394 27.2824298,14.1600909 27.7580661,14.2988182 C28.2337025,14.4375455 28.7324601,14.5069091 29.2543388,14.5069091 C29.7762176,14.5069091 30.2254298,14.4342424 30.6019752,14.2889091 C30.9785207,14.1435758 31.1667934,13.9652121 31.1667934,13.7538182 C31.1667934,13.6349091 31.0809146,13.5754545 30.909157,13.5754545 L30.909157,13.5754545 L30.1957025,13.6349091 C29.8918237,13.6349091 29.6077631,13.5688485 29.3435207,13.4367273 C28.5375813,13.0403636 27.741551,12.5944545 26.9554298,12.099 C26.1693085,11.6035455 25.7762479,11.2963636 25.7762479,11.1774545 C25.7762479,11.1378182 25.8257934,11.0189091 25.9248843,10.8207273 C26.0239752,10.6225455 26.1428843,10.351697 26.2816116,10.0081818 C26.4203388,9.66466667 26.5293388,9.07672727 26.6086116,8.24436364 C26.6350358,8.04618182 26.654854,7.848 26.6680661,7.64981818 C26.6812782,7.45163636 26.7308237,7.28648485 26.8167025,7.15436364 C26.9025813,7.02224242 26.9917631,6.9429697 27.0842479,6.91654545 C27.3352782,6.85048485 27.4607934,6.74478788 27.4607934,6.59945455 C27.4607934,6.42769697 27.3352782,6.34181818 27.0842479,6.34181818 L27.0842479,6.34181818 L24.1313388,6.30218182 C23.9199449,6.30218182 23.7845207,6.31539394 23.7250661,6.34181818 C23.6656116,6.36824242 23.6358843,6.431 23.6358843,6.53009091 C23.6358843,6.62918182 23.6689146,6.69524242 23.7349752,6.72827273 C23.8010358,6.76130303 23.9034298,6.78442424 24.042157,6.79763636 C24.1808843,6.81084848 24.3394298,6.86039394 24.5177934,6.94627273 C24.696157,7.03215152 24.8381873,7.11142424 24.9438843,7.18409091 C25.0495813,7.25675758 25.1717934,7.44172727 25.3105207,7.739 C25.4492479,8.03627273 25.5186116,8.49209091 25.5186116,9.10645455 C25.5186116,9.72081818 25.4261267,10.1535152 25.241157,10.4045455 C25.1618843,10.5234545 25.0727025,10.5829091 24.9736116,10.5829091 C24.8745207,10.5829091 24.362551,10.1865455 23.4377025,9.39381818 C22.512854,8.60109091 21.6309449,7.78524242 20.7919752,6.94627273 C19.9530055,6.10730303 19.3452479,5.48963636 18.9687025,5.09327273 C18.592157,4.69690909 18.2222176,4.23778788 17.8588843,3.71590909 C17.495551,3.1940303 17.3138843,2.7580303 17.3138843,2.40790909 C17.3138843,2.05778788 17.4658237,1.72087879 17.7697025,1.39718182 C18.0735813,1.07348485 18.479854,0.911636364 18.9885207,0.911636364 C19.4971873,0.911636364 19.9397934,1.03054545 20.3163388,1.26836364 C20.6928843,1.50618182 20.9934601,1.76712121 21.2180661,2.05118182 C21.4426722,2.33524242 21.6540661,2.59618182 21.8522479,2.834 C22.0504298,3.07181818 22.1957631,3.19072727 22.2882479,3.19072727 C22.3807328,3.19072727 22.4368843,3.15109091 22.4567025,3.07181818 C22.4765207,2.99254545 22.4864298,2.76133333 22.4864298,2.37818182 L22.4864298,2.37818182 L22.407157,1.03054545 C22.407157,0.726666667 22.3014601,0.574727273 22.0900661,0.574727273 L22.0900661,0.574727273 L21.6540661,0.634181818 C21.6012176,0.634181818 21.3700055,0.558212121 20.9604298,0.406272727 C20.550854,0.254333333 20.114854,0.178363636 19.6524298,0.178363636 C18.701157,0.178363636 17.8423691,0.399666667 17.0760661,0.842272727 C16.3097631,1.28487879 15.9266116,1.94218182 15.9266116,2.81418182 C15.9266116,3.31624242 16.0058843,3.76215152 16.1644298,4.15190909 C16.3229752,4.54166667 16.4815207,4.83233333 16.6400661,5.02390909 C16.7986116,5.21548485 16.8778843,5.32778788 16.8778843,5.36081818 C16.8778843,5.39384848 16.7556722,5.43678788 16.5112479,5.48963636 C16.2668237,5.54248485 15.9431267,5.67460606 15.540157,5.886 C15.1371873,6.09739394 14.8002782,6.37154545 14.5294298,6.70845455 C14.2585813,7.04536364 14.0471873,7.45493939 13.8952479,7.93718182 C13.7433085,8.41942424 13.6673388,8.88515152 13.6673388,9.33436364 C13.6673388,10.2195758 13.8225813,10.9990909 14.1330661,11.6729091 C14.443551,12.3467273 14.8200964,12.862 15.2627025,13.2187273 C15.7053085,13.5754545 16.303157,13.8892424 17.0562479,14.1600909 C17.8093388,14.4309394 18.6549146,14.5663636 19.5929752,14.5663636 Z M20.3757934,13.2385455 C19.6160964,13.2385455 18.8530964,13.083303 18.0867934,12.7728182 C17.3204904,12.4623333 16.7259449,12.0692727 16.303157,11.5936364 C15.4179449,10.6027273 14.9753388,9.66466667 14.9753388,8.77945455 C14.9753388,7.89424242 15.2263691,7.17418182 15.7284298,6.61927273 C16.2304904,6.06436364 16.6995207,5.78690909 17.1355207,5.78690909 C17.2015813,5.78690909 17.2544298,5.80672727 17.2940661,5.84636364 C17.3337025,5.87278788 17.3733388,5.89921212 17.4129752,5.92563636 C17.4526116,5.95206061 17.502157,5.99830303 17.5616116,6.06436364 C17.5972843,6.104 17.6912225,6.20071273 17.8434261,6.35450182 L18.0150516,6.52731636 C18.078734,6.59126303 18.1488904,6.66155152 18.2255207,6.73818182 C18.2680931,6.78075421 18.3125412,6.82520239 18.3588652,6.87152637 L19.6074107,8.12007183 L19.6074107,8.12007183 L19.8307934,8.34345455 C20.332854,8.84551515 20.9802479,9.43345455 21.7729752,10.1072727 C22.5657025,10.7810909 23.1338237,11.2468182 23.4773388,11.5044545 C23.820854,11.7620909 23.9926116,11.9173333 23.9926116,11.9701818 C23.9926116,12.0494545 23.8538843,12.1848788 23.5764298,12.3764545 C23.2989752,12.5680303 22.8860964,12.7596061 22.3377934,12.9511818 C21.7894904,13.1427576 21.1354904,13.2385455 20.3757934,13.2385455 Z M40.4813388,14.2294545 C40.9041267,14.2294545 41.3995813,13.9387879 41.9677025,13.3574545 C42.5358237,12.7761212 42.8198843,12.2013939 42.8198843,11.6332727 C42.8198843,11.4086667 42.7406116,11.2963636 42.5820661,11.2963636 C42.4499449,11.2963636 42.2980055,11.4615152 42.1262479,11.7918182 C41.9677025,12.1089091 41.4920661,12.4127879 40.6993388,12.7034545 C39.8273388,13.0205455 38.4004298,13.1790909 36.4186116,13.1790909 C36.1807934,13.1790909 35.9000358,13.1295455 35.5763388,13.0304545 C35.2526419,12.9313636 35.0907934,12.4061818 35.0907934,11.4549091 L35.0907934,11.4549091 L35.0916495,10.5172079 C35.0958351,10.0526063 35.1153679,8.77971879 35.1502479,6.69854545 C35.1898843,4.33357576 35.2229146,2.88684848 35.2493388,2.35836364 C35.2757631,1.82987879 35.378157,1.43021212 35.5565207,1.15936364 C35.7348843,0.888515152 35.919854,0.743181818 36.1114298,0.723363636 C36.3030055,0.703545455 36.4780661,0.663909091 36.6366116,0.604454545 C36.795157,0.545 36.8744298,0.422787879 36.8744298,0.237818182 C36.8744298,0.10569697 36.7621267,0.0396363636 36.5375207,0.0396363636 L36.5375207,0.0396363636 L34.4566116,0.118909091 L32.7324298,0.0396363636 L32.1973388,0 C31.8406116,0 31.6622479,0.118909091 31.6622479,0.356727273 C31.6622479,0.449212121 31.6787631,0.518575758 31.7117934,0.564818182 C31.7448237,0.611060606 31.9000661,0.637484848 32.1775207,0.644090909 C32.4549752,0.65069697 32.7522479,0.75969697 33.0693388,0.971090909 C33.3864298,1.18248485 33.5515813,1.47975758 33.5647934,1.86290909 C33.5912176,2.70848485 33.6044298,3.30963636 33.6044298,3.66636364 L33.6044298,3.66636364 L33.5449752,7.09490909 L33.5449752,9.55236364 C33.5449752,10.9660606 33.4921267,11.9206364 33.3864298,12.4160909 C33.2807328,12.9115455 33.1221873,13.2385455 32.9107934,13.3970909 C32.6993994,13.5556364 32.5276419,13.6349091 32.3955207,13.6349091 C32.2633994,13.6349091 32.1610055,13.6646364 32.0883388,13.7240909 C32.0156722,13.7835455 31.9793388,13.8595152 31.9793388,13.952 C31.9793388,14.1105455 32.1709146,14.1898182 32.5540661,14.1898182 L32.5540661,14.1898182 L35.0313388,14.0312727 C35.3220055,14.0312727 36.0651873,14.064303 37.2608843,14.1303636 C38.4565813,14.1964242 39.5300661,14.2294545 40.4813388,14.2294545 Z" id="E&amp;L"></path>
                        <path d="M8.85332231,41.3821653 C9.35057851,41.3821653 9.59920661,41.1983967 9.59920661,40.8308595 C9.59920661,40.3552231 9.29652893,40.1390248 8.69117355,40.1822645 C8.45335537,40.1822645 8.15067769,40.1606446 7.7831405,40.117405 C6.31299174,39.9444463 5.57791736,38.6040165 5.57791736,36.0961157 L5.57791736,36.0961157 L5.64277686,22.7026281 C5.64277686,21.2973388 5.76168595,20.3947107 5.99950413,19.9947438 C6.23732231,19.5947769 6.69133884,19.3947934 7.36155372,19.3947934 C9.41543802,19.3947934 11.0261157,20.0163636 12.1935868,21.2595041 C13.3610579,22.5026446 13.9447934,23.8484793 13.9447934,25.2970083 C13.9447934,26.1401818 13.7502149,26.8806612 13.3610579,27.5184463 C12.9719008,28.1562314 12.4746446,28.6318678 11.8692893,28.9453554 C11.2639339,29.258843 10.6801983,29.4858512 10.1180826,29.6263802 C9.55596694,29.7669091 9.06952066,29.8371736 8.6587438,29.8371736 C8.24796694,29.8371736 7.87502479,29.7939339 7.53991736,29.7074545 C7.20480992,29.6209752 6.98320661,29.5777355 6.87510744,29.5777355 C6.59404959,29.5777355 6.45352066,29.7398843 6.45352066,30.0641818 C6.45352066,30.2371405 6.81024793,30.4046942 7.52370248,30.566843 C8.23715702,30.7289917 9.02628099,30.8100661 9.89107438,30.8100661 C10.7558678,30.8100661 11.7395702,30.561438 12.8421818,30.0641818 C13.5340165,29.7398843 14.1555868,29.3399174 14.7068926,28.864281 C15.2581983,28.3886446 15.7284298,27.7346446 16.1175868,26.902281 C16.5067438,26.0699174 16.7013223,25.1240496 16.7013223,24.0646777 C16.7013223,22.1405124 15.9662479,20.6649587 14.4960992,19.6380165 C13.0259504,18.6110744 11.2747438,18.0976033 9.24247934,18.0976033 L9.24247934,18.0976033 L3.89157025,18.1948926 L1.94578512,18.0976033 L0.745884298,18.1300331 C0.248628099,18.1300331 0,18.3029917 0,18.6489091 C0,18.9299669 0.216198347,19.0704959 0.648595041,19.0704959 C1.4917686,19.0704959 2.09712397,19.3569587 2.46466116,19.9298843 C2.83219835,20.5028099 3.01596694,21.0811405 3.01596694,21.664876 L3.01596694,21.664876 L3.04839669,27.1779339 C3.04839669,28.734562 3.00515702,30.9289752 2.91867769,33.7611736 C2.83219835,36.5933719 2.72950413,38.1770248 2.61059504,38.5121322 C2.49168595,38.8472397 2.39439669,39.0958678 2.31872727,39.2580165 C2.24305785,39.4201653 2.18360331,39.5498843 2.14036364,39.6471736 C2.09712397,39.7444628 2.03766942,39.8201322 1.962,39.8741818 C1.88633058,39.9282314 1.83228099,39.9606612 1.79985124,39.9714711 C1.76742149,39.982281 1.70796694,39.9930909 1.6214876,40.0039008 C1.53500826,40.0147107 1.4647438,40.0309256 1.41069421,40.0525455 C1.35664463,40.0741653 1.24854545,40.1011901 1.08639669,40.1336198 C0.924247934,40.1660496 0.821553719,40.1930744 0.77831405,40.2146942 C0.73507438,40.236314 0.659404959,40.2687438 0.551305785,40.3119835 C0.313487603,40.3984628 0.194578512,40.6254711 0.194578512,40.9930083 C0.194578512,41.2308264 0.52968595,41.3497355 1.19990083,41.3497355 L1.19990083,41.3497355 L4.21586777,41.2200165 L8.85332231,41.3821653 Z M20.268595,41.1875868 L23.7710083,41.025438 L26.4626777,41.155157 C27.1545124,41.155157 27.5004298,40.9605785 27.5004298,40.5714215 C27.5004298,40.3336033 27.1437025,40.2146942 26.4302479,40.2146942 C25.9762314,40.2146942 25.6627438,40.1606446 25.4897851,40.0525455 C24.8195702,39.6201488 24.3979835,39.1769421 24.2250248,38.7229256 C24.0520661,38.2689091 23.9655868,37.5770744 23.9655868,36.6474215 L23.9655868,36.6474215 L23.9655868,35.2529421 L24.0953058,31.2640826 C24.0953058,30.7235868 24.1493554,30.3884793 24.2574545,30.2587603 C24.3655537,30.1290413 24.5817521,30.0641818 24.9060496,30.0641818 L24.9060496,30.0641818 L30.873124,30.1614711 L32.6243306,30.1290413 C33.7918017,30.0858017 34.667405,30.0641818 35.2511405,30.0641818 C35.834876,30.0641818 36.2564628,30.1290413 36.5159008,30.2587603 C36.7753388,30.3884793 36.9050579,30.6154876 36.9050579,30.9397851 L36.9050579,30.9397851 L36.8077686,36.6798512 C36.8077686,38.3878182 36.5807603,39.4039504 36.1267438,39.7282479 C35.8889256,39.9228264 35.6402975,40.0525455 35.3808595,40.117405 C35.1214215,40.1822645 34.8836033,40.2687438 34.667405,40.376843 C34.4512066,40.4849421 34.3431074,40.5984463 34.3431074,40.7173554 C34.3431074,40.8362645 34.3701322,40.9389587 34.4241818,41.025438 C34.4782314,41.1119174 34.656595,41.155157 34.9592727,41.155157 L34.9592727,41.155157 L35.5105785,41.155157 L38.5589752,40.9930083 L41.0560661,41.155157 C41.6830413,41.155157 42.1046281,41.1335372 42.3208264,41.0902975 C42.5370248,41.0470579 42.645124,40.9497686 42.645124,40.7984298 C42.645124,40.5606116 42.515405,40.4417025 42.2559669,40.4417025 C40.4399008,40.247124 39.5318678,39.4471901 39.5318678,38.0419008 L39.5318678,38.0419008 L39.4021488,35.0583636 L39.4021488,33.8584628 L39.5642975,21.1135702 C39.5642975,20.5082149 39.7210413,20.0217686 40.0345289,19.6542314 C40.3480165,19.2866942 40.807438,19.1029256 41.4127934,19.1029256 C41.7154711,19.1029256 41.8668099,18.9623967 41.8668099,18.6813388 C41.8668099,18.400281 41.6181818,18.2597521 41.1209256,18.2597521 L41.1209256,18.2597521 L38.591405,18.3246116 L35.445719,18.2597521 C34.6025455,18.2597521 34.1809587,18.3678512 34.1809587,18.5840496 C34.1809587,18.8002479 34.272843,18.9461818 34.4566116,19.0218512 C34.6403802,19.0975207 34.8673884,19.1569752 35.1376364,19.2002149 C35.4078843,19.2434545 35.6727273,19.3407438 35.9321653,19.4920826 C36.5807603,19.8596198 36.9050579,20.8541322 36.9050579,22.4756198 L36.9050579,22.4756198 L36.9050579,24.2268264 C36.9050579,27.2319835 36.7861488,28.734562 36.5483306,28.734562 C32.9039276,28.6959969 30.8847314,28.6746297 30.4907419,28.6704605 L30.4235846,28.6697499 L30.4235846,28.6697499 L30.4191074,28.6697025 L25.1006281,28.7021322 C24.6249917,28.7021322 24.322314,28.6264628 24.192595,28.475124 C24.062876,28.3237851 23.9980165,27.9778678 23.9980165,27.4373719 L23.9980165,27.4373719 L24.062876,24.4538347 L24.062876,23.2539339 C24.062876,22.324281 24.1601653,21.4162479 24.3547438,20.5298347 C24.5493223,19.6434215 24.8628099,19.2002149 25.2952066,19.2002149 C26.0519008,19.2002149 26.4302479,19.0164463 26.4302479,18.6489091 C26.4302479,18.3462314 26.1924298,18.1948926 25.7167934,18.1948926 L25.7167934,18.1948926 L22.8629752,18.2597521 L19.1984132,18.1300331 C18.5930579,18.1300331 18.2903802,18.2489421 18.2903802,18.4867603 C18.2903802,18.5732397 18.3498347,18.6867438 18.4687438,18.8272727 C18.5876529,18.9678017 18.836281,19.0380661 19.2146281,19.0380661 C19.5929752,19.0380661 20.0361818,19.189405 20.5442479,19.4920826 C21.052314,19.7947603 21.3387769,20.2163471 21.4036364,20.756843 C21.5333554,21.6864959 21.5982149,22.972876 21.5982149,24.6159835 L21.5982149,24.6159835 L21.5657851,28.1183967 L21.5657851,29.9668926 C21.5657851,31.6532397 21.5117355,33.4260661 21.4036364,35.2853719 C21.2955372,37.1446777 21.1982479,38.285124 21.1117686,38.7067107 C21.0252893,39.1282975 20.8415207,39.463405 20.5604628,39.7120331 C20.279405,39.9606612 20.009157,40.0957851 19.749719,40.117405 C19.0795041,40.2038843 18.7443967,40.3984628 18.7443967,40.7011405 C18.7443967,41.025438 19.2524628,41.1875868 20.268595,41.1875868 L20.268595,41.1875868 Z" id="PH"></path>
                    </g>
                </g>
            </g>
        </g>
    </g>
</svg>